<svg width="238" height="189" viewBox="0 0 238 189" fill="none" xmlns="http://www.w3.org/2000/svg">
<path d="M29.0478 30.8317C28.9266 29.3165 28.3584 28.1347 27.3433 27.2862C26.3433 26.4377 24.8205 26.0135 22.7751 26.0135C21.4721 26.0135 20.4039 26.1726 19.5705 26.4908C18.7524 26.7938 18.1463 27.2105 17.7524 27.7408C17.3584 28.2711 17.1539 28.8771 17.1387 29.5589C17.1084 30.1195 17.2069 30.6271 17.4342 31.0817C17.6766 31.5211 18.0554 31.9226 18.5705 32.2862C19.0857 32.6347 19.7448 32.9529 20.5478 33.2408C21.3508 33.5286 22.3054 33.7862 23.4115 34.0135L27.2296 34.8317C29.8054 35.3771 32.0099 36.0968 33.8433 36.9908C35.6766 37.8847 37.1766 38.9377 38.3433 40.1498C39.5099 41.3468 40.366 42.6953 40.9115 44.1953C41.4721 45.6953 41.7599 47.3317 41.7751 49.1044C41.7599 52.165 40.9948 54.7559 39.4796 56.8771C37.9645 58.9983 35.7978 60.612 32.9796 61.718C30.1766 62.8241 26.8054 63.3771 22.866 63.3771C18.8205 63.3771 15.2902 62.7786 12.2751 61.5817C9.27509 60.3847 6.94176 58.5438 5.27509 56.0589C3.62358 53.5589 2.79024 50.362 2.77509 46.468H14.7751C14.8508 47.8923 15.2069 49.0892 15.8433 50.0589C16.4796 51.0286 17.3736 51.7635 18.5251 52.2635C19.6918 52.7635 21.0781 53.0135 22.6842 53.0135C24.0327 53.0135 25.1615 52.8468 26.0705 52.5135C26.9796 52.1801 27.669 51.718 28.1387 51.1271C28.6084 50.5362 28.8508 49.862 28.866 49.1044C28.8508 48.3923 28.616 47.7711 28.1615 47.2408C27.7221 46.6953 26.9948 46.2105 25.9796 45.7862C24.9645 45.3468 23.5933 44.9377 21.866 44.5589L17.2296 43.5589C13.1084 42.665 9.85842 41.1726 7.47964 39.0817C5.116 36.9756 3.94176 34.1044 3.95691 30.468C3.94176 27.5135 4.72964 24.9301 6.32055 22.718C7.92661 20.4908 10.1463 18.7559 12.9796 17.5135C15.8281 16.2711 19.0933 15.6498 22.7751 15.6498C26.5327 15.6498 29.7827 16.2786 32.5251 17.5362C35.2675 18.7938 37.3812 20.5665 38.866 22.8544C40.366 25.1271 41.1236 27.7862 41.1387 30.8317H29.0478ZM43.3819 62.8317V16.2862H76.9274V26.468H56.0183V34.468H75.2001V44.6498H56.0183V52.6498H76.8365V62.8317H43.3819ZM79.9944 62.8317V16.2862H92.6308V52.6498H111.449V62.8317H79.9944ZM113.357 62.8317V16.2862H146.084V26.468H125.993V34.468H144.084V44.6498H125.993V62.8317H113.357Z" fill="#191919"/>
<path d="M2.68418 83.3046V73.1228H43.1387V83.3046H29.1387V119.668H16.6842V83.3046H2.68418ZM50.9103 119.668H37.274L52.6376 73.1228H69.9103L85.274 119.668H71.6376L61.4558 85.9409H61.0921L50.9103 119.668ZM48.3649 101.305H74.0012V110.759H48.3649V101.305ZM86.5569 119.668V73.1228H106.648C110.102 73.1228 113.125 73.8046 115.716 75.1682C118.307 76.5318 120.322 78.4485 121.761 80.9182C123.201 83.3879 123.921 86.2743 123.921 89.5773C123.921 92.9106 123.178 95.797 121.693 98.2364C120.224 100.676 118.155 102.555 115.489 103.873C112.837 105.191 109.739 105.85 106.193 105.85H94.1933V96.0318H103.648C105.133 96.0318 106.398 95.7743 107.443 95.2591C108.504 94.7288 109.314 93.9788 109.875 93.0091C110.451 92.0394 110.739 90.8955 110.739 89.5773C110.739 88.244 110.451 87.1076 109.875 86.1682C109.314 85.2137 108.504 84.4864 107.443 83.9864C106.398 83.4712 105.133 83.2137 103.648 83.2137H99.1933V119.668H86.5569ZM125.357 119.668V73.1228H158.902V83.3046H137.993V91.3046H157.175V101.486H137.993V109.486H158.811V119.668H125.357Z" fill="#191919"/>
<path d="M3.95691 173.847V127.301H24.1387C27.6842 127.301 30.6615 127.778 33.0705 128.733C35.4948 129.687 37.3205 131.036 38.5478 132.778C39.7902 134.521 40.4115 136.574 40.4115 138.937C40.4115 140.65 40.0327 142.21 39.2751 143.619C38.5327 145.028 37.4872 146.21 36.1387 147.165C34.7902 148.104 33.2145 148.756 31.4115 149.119V149.574C33.4115 149.65 35.2296 150.157 36.866 151.097C38.5024 152.021 39.8054 153.301 40.7751 154.937C41.7448 156.559 42.2296 158.468 42.2296 160.665C42.2296 163.21 41.563 165.475 40.2296 167.46C38.9115 169.445 37.0327 171.006 34.5933 172.142C32.1539 173.278 29.2448 173.847 25.866 173.847H3.95691ZM16.5933 163.756H22.5024C24.6236 163.756 26.2145 163.362 27.2751 162.574C28.3357 161.771 28.866 160.589 28.866 159.028C28.866 157.937 28.616 157.013 28.116 156.256C27.616 155.498 26.9039 154.922 25.9796 154.528C25.0705 154.134 23.9721 153.937 22.6842 153.937H16.5933V163.756ZM16.5933 146.119H21.7751C22.8812 146.119 23.8584 145.945 24.7069 145.597C25.5554 145.248 26.2145 144.748 26.6842 144.097C27.169 143.43 27.4115 142.619 27.4115 141.665C27.4115 140.225 26.8963 139.127 25.866 138.369C24.8357 137.597 23.5327 137.21 21.9569 137.21H16.5933V146.119ZM55.5978 173.847H41.9615L57.3251 127.301H74.5978L89.9615 173.847H76.3251L66.1433 140.119H65.7796L55.5978 173.847ZM53.0524 155.483H78.6887V164.937H53.0524V155.483ZM84.0967 137.483V127.301H124.551V137.483H110.551V173.847H98.0967V137.483H84.0967ZM124.834 137.483V127.301H165.289V137.483H151.289V173.847H138.834V137.483H124.834ZM166.844 173.847V127.301H179.481V163.665H198.299V173.847H166.844ZM200.207 173.847V127.301H233.752V137.483H212.843V145.483H232.025V155.665H212.843V163.665H233.661V173.847H200.207Z" fill="#191919"/>
</svg>
