<svg width="31" height="31" viewBox="0 0 31 31" fill="none" xmlns="http://www.w3.org/2000/svg">
<path d="M8.92969 7.11328L3.92969 9.61328V4.61328L8.92969 7.11328ZM22.6797 4.61328V9.61328L27.6797 7.11328L22.6797 4.61328ZM13.9297 3.36328V8.36328L18.9297 5.86328L13.9297 3.36328ZM16.4297 23.3633H13.9297V28.3633C7.55469 28.2383 2.67969 26.6133 2.67969 24.6133V13.3633C2.67969 11.2383 8.30469 9.61328 15.1797 9.61328C22.0547 9.61328 27.6797 11.2383 27.6797 13.3633V24.6133C27.6797 26.6133 22.6797 28.2383 16.4297 28.3633V23.3633ZM6.42969 13.3633C8.17969 13.9883 11.1797 14.6133 15.1797 14.6133C19.1797 14.6133 22.1797 13.9883 23.9297 13.3633C23.9297 13.1133 20.4297 12.1133 15.1797 12.1133C9.92969 12.1133 6.42969 13.2383 6.42969 13.3633ZM25.1797 15.6133C22.9297 16.4883 19.3047 17.1133 15.1797 17.1133C11.0547 17.1133 7.42969 16.4883 5.17969 15.6133V24.1133C5.92969 24.6133 8.17969 25.3633 11.4297 25.7383V20.8633H18.9297V25.7383C22.1797 25.3633 24.4297 24.6133 25.1797 24.1133V15.6133Z" fill="#656C81"/>
</svg>
