<svg width="31" height="31" viewBox="0 0 31 31" fill="none" xmlns="http://www.w3.org/2000/svg">
<path d="M5.17969 22.666C5.17969 21.3399 5.70647 20.0682 6.64415 19.1305C7.58184 18.1928 8.85361 17.666 10.1797 17.666H20.1797C21.5058 17.666 22.7775 18.1928 23.7152 19.1305C24.6529 20.0682 25.1797 21.3399 25.1797 22.666C25.1797 23.3291 24.9163 23.9649 24.4475 24.4338C23.9786 24.9026 23.3427 25.166 22.6797 25.166H7.67969C7.01665 25.166 6.38076 24.9026 5.91192 24.4338C5.44308 23.9649 5.17969 23.3291 5.17969 22.666Z" stroke="#656C81" stroke-width="2" stroke-linejoin="round"/>
<path d="M15.1797 12.666C17.2508 12.666 18.9297 10.9871 18.9297 8.91602C18.9297 6.84495 17.2508 5.16602 15.1797 5.16602C13.1086 5.16602 11.4297 6.84495 11.4297 8.91602C11.4297 10.9871 13.1086 12.666 15.1797 12.666Z" stroke="#656C81" stroke-width="2"/>
</svg>
