<svg width="31" height="31" viewBox="0 0 31 31" fill="none" xmlns="http://www.w3.org/2000/svg">
<path d="M26.4297 26.7202L18.9297 19.2202M3.92969 12.9702C3.92969 14.1193 4.15601 15.2571 4.59574 16.3187C5.03547 17.3803 5.67999 18.3449 6.4925 19.1574C7.30502 19.9699 8.26961 20.6144 9.33121 21.0542C10.3928 21.4939 11.5306 21.7202 12.6797 21.7202C13.8288 21.7202 14.9666 21.4939 16.0282 21.0542C17.0898 20.6144 18.0544 19.9699 18.8669 19.1574C19.6794 18.3449 20.3239 17.3803 20.7636 16.3187C21.2034 15.2571 21.4297 14.1193 21.4297 12.9702C21.4297 11.8211 21.2034 10.6833 20.7636 9.62173C20.3239 8.56014 19.6794 7.59554 18.8669 6.78303C18.0544 5.97052 17.0898 5.326 16.0282 4.88627C14.9666 4.44654 13.8288 4.22021 12.6797 4.22021C11.5306 4.22021 10.3928 4.44654 9.33121 4.88627C8.26961 5.326 7.30502 5.97052 6.4925 6.78303C5.67999 7.59554 5.03547 8.56014 4.59574 9.62173C4.15601 10.6833 3.92969 11.8211 3.92969 12.9702Z" stroke="#656C81" stroke-width="2" stroke-linecap="round" stroke-linejoin="round"/>
</svg>
