<svg width="232" height="159" viewBox="0 0 232 159" fill="none" xmlns="http://www.w3.org/2000/svg">
<path d="M28.263 15.5684C27.2203 15.5684 26.4048 14.739 26.0032 13.7767C25.715 13.086 25.2847 12.5015 24.7121 12.0229C23.7121 11.1744 22.1894 10.7502 20.1439 10.7502C18.8409 10.7502 17.7727 10.9093 16.9394 11.2274C16.1212 11.5305 15.5151 11.9471 15.1212 12.4774C14.7273 13.0077 14.5227 13.6138 14.5076 14.2956C14.4773 14.8562 14.5757 15.3638 14.803 15.8184C15.0454 16.2577 15.4242 16.6593 15.9394 17.0229C16.4545 17.3714 17.1136 17.6896 17.9166 17.9774C18.7197 18.2653 19.6742 18.5229 20.7803 18.7502L24.5985 19.5684C27.1742 20.1138 29.3788 20.8335 31.2121 21.7274C33.0454 22.6214 34.5454 23.6744 35.7121 24.8865C36.8788 26.0835 37.7348 27.432 38.2803 28.932C38.8409 30.432 39.1288 32.0684 39.1439 33.8411C39.1288 36.9017 38.3636 39.4926 36.8485 41.6138C35.3333 43.735 33.1666 45.3487 30.3485 46.4547C27.5454 47.5608 24.1742 48.1138 20.2348 48.1138C16.1894 48.1138 12.6591 47.5153 9.64392 46.3184C6.64392 45.1214 4.31059 43.2805 2.64392 40.7956C1.28528 38.739 0.480367 36.2106 0.229174 33.2106C0.136758 32.1068 1.04411 31.2047 2.15172 31.2047H10.2475C11.3108 31.2047 12.1511 32.0507 12.4398 33.0741C12.6195 33.711 12.8769 34.2848 13.2121 34.7956C13.8485 35.7653 14.7424 36.5002 15.8939 37.0002C17.0606 37.5002 18.447 37.7502 20.053 37.7502C21.4015 37.7502 22.5303 37.5835 23.4394 37.2502C24.3485 36.9168 25.0379 36.4547 25.5076 35.8638C25.9773 35.2729 26.2197 34.5987 26.2348 33.8411C26.2197 33.129 25.9848 32.5077 25.5303 31.9774C25.0909 31.432 24.3636 30.9471 23.3485 30.5229C22.3333 30.0835 20.9621 29.6744 19.2348 29.2956L14.5985 28.2956C10.4773 27.4017 7.22725 25.9093 4.84847 23.8184C2.48483 21.7123 1.31059 18.8411 1.32574 15.2047C1.31059 12.2502 2.09847 9.66684 3.68938 7.45472C5.29544 5.22744 7.51513 3.4926 10.3485 2.25017C13.197 1.00775 16.4621 0.386536 20.1439 0.386536C23.9015 0.386536 27.1515 1.01532 29.8939 2.2729C32.6363 3.53048 34.75 5.3032 36.2348 7.59108C37.3959 9.35029 38.1122 11.341 38.3836 13.5632C38.518 14.6635 37.606 15.5684 36.4976 15.5684H28.263Z" fill="#EE303C"/>
<path d="M46.7565 47.5684C45.6519 47.5684 44.7565 46.6729 44.7565 45.5684V3.0229C44.7565 1.91833 45.6519 1.0229 46.7565 1.0229H76.302C77.4065 1.0229 78.302 1.91833 78.302 3.0229V9.20472C78.302 10.3093 77.4065 11.2047 76.302 11.2047H59.3929C58.2883 11.2047 57.3929 12.1001 57.3929 13.2047V17.2047C57.3929 18.3093 58.2883 19.2047 59.3929 19.2047H74.5747C75.6793 19.2047 76.5747 20.1001 76.5747 21.2047V27.3865C76.5747 28.4911 75.6793 29.3865 74.5747 29.3865H59.3929C58.2883 29.3865 57.3929 30.282 57.3929 31.3865V35.3865C57.3929 36.4911 58.2883 37.3865 59.3929 37.3865H76.2111C77.3156 37.3865 78.2111 38.282 78.2111 39.3865V45.5684C78.2111 46.6729 77.3156 47.5684 76.2111 47.5684H46.7565Z" fill="#EE303C"/>
<path d="M86.4846 47.5684C85.38 47.5684 84.4846 46.6729 84.4846 45.5684V3.0229C84.4846 1.91833 85.38 1.0229 86.4846 1.0229H95.121C96.2255 1.0229 97.121 1.91833 97.121 3.0229V35.3865C97.121 36.4911 98.0164 37.3865 99.121 37.3865H113.939C115.044 37.3865 115.939 38.282 115.939 39.3865V45.5684C115.939 46.6729 115.044 47.5684 113.939 47.5684H86.4846Z" fill="#EE303C"/>
<path d="M123.784 47.5684C122.68 47.5684 121.784 46.6729 121.784 45.5684V3.0229C121.784 1.91833 122.68 1.0229 123.784 1.0229H152.512C153.616 1.0229 154.512 1.91833 154.512 3.0229V9.20472C154.512 10.3093 153.616 11.2047 152.512 11.2047H136.421C135.316 11.2047 134.421 12.1001 134.421 13.2047V17.2047C134.421 18.3093 135.316 19.2047 136.421 19.2047H150.512C151.616 19.2047 152.512 20.1001 152.512 21.2047V27.3865C152.512 28.4911 151.616 29.3865 150.512 29.3865H136.421C135.316 29.3865 134.421 30.282 134.421 31.3865V45.5684C134.421 46.6729 133.525 47.5684 132.421 47.5684H123.784Z" fill="#EE303C"/>
<path d="M2.05298 68.0413C0.948409 68.0413 0.0529785 67.1458 0.0529785 66.0413V59.8594C0.0529785 58.7549 0.948409 57.8594 2.05298 57.8594H38.5075C39.6121 57.8594 40.5075 58.7549 40.5075 59.8594V66.0413C40.5075 67.1458 39.6121 68.0413 38.5075 68.0413H28.5075C27.403 68.0413 26.5075 68.9367 26.5075 70.0413V102.405C26.5075 103.509 25.6121 104.405 24.5075 104.405H16.053C14.9484 104.405 14.053 103.509 14.053 102.405V70.0413C14.053 68.9367 13.1575 68.0413 12.053 68.0413H2.05298Z" fill="#EE303C"/>
<path d="M48.7084 102.983C48.4535 103.827 47.6757 104.405 46.7937 104.405H37.409C36.0464 104.405 35.0827 103.072 35.5098 101.778L49.5532 59.2325C49.8237 58.413 50.5893 57.8594 51.4524 57.8594H65.8331C66.6962 57.8594 67.4618 58.413 67.7323 59.2325L81.7757 101.778C82.2028 103.072 81.2391 104.405 79.8765 104.405H70.4918C69.6098 104.405 68.832 103.827 68.5771 102.983L58.8771 70.8517C58.8459 70.7483 58.7507 70.6776 58.6428 70.6776V70.6776C58.5348 70.6776 58.4396 70.7483 58.4084 70.8517L48.7084 102.983ZM45.7337 88.0413C45.7337 86.9367 46.6291 86.0413 47.7337 86.0413H69.37C70.4746 86.0413 71.37 86.9367 71.37 88.0413V93.4958C71.37 94.6004 70.4746 95.4958 69.37 95.4958H47.7337C46.6291 95.4958 45.7337 94.6004 45.7337 93.4958V88.0413Z" fill="#EE303C"/>
<path d="M85.9257 104.405C84.8211 104.405 83.9257 103.509 83.9257 102.405V59.8594C83.9257 58.7549 84.8211 57.8594 85.9257 57.8594H104.017C107.471 57.8594 110.494 58.5413 113.085 59.9049C115.676 61.2685 117.691 63.1852 119.13 65.6549C120.57 68.1246 121.289 71.011 121.289 74.314C121.289 77.6473 120.547 80.5337 119.062 82.9731C117.592 85.4125 115.524 87.2913 112.858 88.6094C110.206 89.9276 107.108 90.5867 103.562 90.5867H93.5621C92.4575 90.5867 91.5621 89.6913 91.5621 88.5867V82.7685C91.5621 81.664 92.4575 80.7685 93.5621 80.7685H101.017C102.501 80.7685 103.767 80.511 104.812 79.9958C105.873 79.4655 106.683 78.7155 107.244 77.7458C107.82 76.7761 108.108 75.6322 108.108 74.314C108.108 72.9806 107.82 71.8443 107.244 70.9049C106.683 69.9503 105.873 69.2231 104.812 68.7231C103.767 68.2079 102.501 67.9503 101.017 67.9503H98.5621C97.4575 67.9503 96.5621 68.8458 96.5621 69.9503V102.405C96.5621 103.509 95.6666 104.405 94.5621 104.405H85.9257Z" fill="#EE303C"/>
<path d="M124.726 104.405C123.621 104.405 122.726 103.509 122.726 102.405V59.8594C122.726 58.7549 123.621 57.8594 124.726 57.8594H154.271C155.376 57.8594 156.271 58.7549 156.271 59.8594V66.0413C156.271 67.1458 155.376 68.0413 154.271 68.0413H137.362C136.258 68.0413 135.362 68.9367 135.362 70.0413V74.0413C135.362 75.1458 136.258 76.0413 137.362 76.0413H152.544C153.648 76.0413 154.544 76.9367 154.544 78.0413V84.2231C154.544 85.3276 153.648 86.2231 152.544 86.2231H137.362C136.258 86.2231 135.362 87.1185 135.362 88.2231V92.2231C135.362 93.3276 136.258 94.2231 137.362 94.2231H154.18C155.285 94.2231 156.18 95.1185 156.18 96.2231V102.405C156.18 103.509 155.285 104.405 154.18 104.405H124.726Z" fill="#EE303C"/>
<path d="M3.32568 158.583C2.22111 158.583 1.32568 157.688 1.32568 156.583V114.038C1.32568 112.933 2.22111 112.038 3.32568 112.038H21.5075C25.053 112.038 28.0302 112.515 30.4393 113.47C32.8636 114.424 34.6893 115.773 35.9166 117.515C37.159 119.257 37.7802 121.311 37.7802 123.674C37.7802 125.386 37.4014 126.947 36.6439 128.356C35.9014 129.765 34.856 130.947 33.5075 131.901C32.2103 132.805 30.7027 133.442 28.9848 133.813C28.866 133.839 28.7802 133.943 28.7802 134.065V134.065C28.7802 134.202 28.8888 134.314 29.0258 134.322C30.9293 134.429 32.6656 134.932 34.2348 135.833C35.8711 136.757 37.1742 138.038 38.1439 139.674C39.1136 141.295 39.5984 143.204 39.5984 145.401C39.5984 147.947 38.9317 150.212 37.5984 152.197C36.2802 154.182 34.4014 155.742 31.962 156.879C29.5227 158.015 26.6136 158.583 23.2348 158.583H3.32568ZM13.962 146.492C13.962 147.597 14.8575 148.492 15.962 148.492H19.8711C21.9924 148.492 23.5833 148.098 24.6439 147.311C25.7045 146.507 26.2348 145.326 26.2348 143.765C26.2348 142.674 25.9848 141.75 25.4848 140.992C24.9848 140.235 24.2727 139.659 23.3484 139.265C22.4393 138.871 21.3408 138.674 20.053 138.674H15.962C14.8575 138.674 13.962 139.57 13.962 140.674V146.492ZM13.962 128.856C13.962 129.961 14.8575 130.856 15.962 130.856H19.1439C20.2499 130.856 21.2272 130.682 22.0757 130.333C22.9242 129.985 23.5833 129.485 24.053 128.833C24.5378 128.167 24.7802 127.356 24.7802 126.401C24.7802 124.962 24.2651 123.864 23.2348 123.106C22.2045 122.333 20.9014 121.947 19.3257 121.947H15.962C14.8575 121.947 13.962 122.842 13.962 123.947V128.856Z" fill="#EE303C"/>
<path d="M53.3959 157.161C53.141 158.006 52.3632 158.583 51.4812 158.583H42.0965C40.7339 158.583 39.7702 157.25 40.1973 155.956L54.2406 113.411C54.5111 112.591 55.2768 112.038 56.1398 112.038H70.5206C71.3836 112.038 72.1493 112.591 72.4198 113.411L86.4632 155.956C86.8903 157.25 85.9266 158.583 84.5639 158.583H75.1792C74.2973 158.583 73.5195 158.006 73.2646 157.161L63.5646 125.03C63.5334 124.927 63.4382 124.856 63.3302 124.856V124.856C63.2223 124.856 63.1271 124.927 63.0959 125.03L53.3959 157.161ZM50.4211 142.22C50.4211 141.115 51.3166 140.22 52.4211 140.22H74.0575C75.1621 140.22 76.0575 141.115 76.0575 142.22V147.674C76.0575 148.779 75.1621 149.674 74.0575 149.674H52.4211C51.3166 149.674 50.4211 148.779 50.4211 147.674V142.22Z" fill="#EE303C"/>
<path d="M83.4655 122.22C82.3609 122.22 81.4655 121.324 81.4655 120.22V114.038C81.4655 112.933 82.3609 112.038 83.4655 112.038H119.92C121.025 112.038 121.92 112.933 121.92 114.038V120.22C121.92 121.324 121.025 122.22 119.92 122.22H109.92C108.815 122.22 107.92 123.115 107.92 124.22V156.583C107.92 157.688 107.025 158.583 105.92 158.583H97.4655C96.3609 158.583 95.4655 157.688 95.4655 156.583V124.22C95.4655 123.115 94.57 122.22 93.4655 122.22H83.4655Z" fill="#EE303C"/>
<path d="M124.203 122.22C123.098 122.22 122.203 121.324 122.203 120.22V114.038C122.203 112.933 123.098 112.038 124.203 112.038H160.658C161.762 112.038 162.658 112.933 162.658 114.038V120.22C162.658 121.324 161.762 122.22 160.658 122.22H150.658C149.553 122.22 148.658 123.115 148.658 124.22V156.583C148.658 157.688 147.762 158.583 146.658 158.583H138.203C137.098 158.583 136.203 157.688 136.203 156.583V124.22C136.203 123.115 135.308 122.22 134.203 122.22H124.203Z" fill="#EE303C"/>
<path d="M166.213 158.583C165.109 158.583 164.213 157.688 164.213 156.583V114.038C164.213 112.933 165.109 112.038 166.213 112.038H174.85C175.954 112.038 176.85 112.933 176.85 114.038V146.401C176.85 147.506 177.745 148.401 178.85 148.401H193.668C194.772 148.401 195.668 149.297 195.668 150.401V156.583C195.668 157.688 194.772 158.583 193.668 158.583H166.213Z" fill="#EE303C"/>
<path d="M199.576 158.583C198.471 158.583 197.576 157.688 197.576 156.583V114.038C197.576 112.933 198.471 112.038 199.576 112.038H229.121C230.226 112.038 231.121 112.933 231.121 114.038V120.22C231.121 121.324 230.226 122.22 229.121 122.22H212.212C211.107 122.22 210.212 123.115 210.212 124.22V128.22C210.212 129.324 211.107 130.22 212.212 130.22H227.394C228.498 130.22 229.394 131.115 229.394 132.22V138.401C229.394 139.506 228.498 140.401 227.394 140.401H212.212C211.107 140.401 210.212 141.297 210.212 142.401V146.401C210.212 147.506 211.107 148.401 212.212 148.401H229.03C230.135 148.401 231.03 149.297 231.03 150.401V156.583C231.03 157.688 230.135 158.583 229.03 158.583H199.576Z" fill="#EE303C"/>
<rect x="119.109" y="112.038" width="8.69377" height="10.1834" fill="#EE303C"/>
</svg>
