<svg width="232" height="160" viewBox="0 0 232 160" fill="none" xmlns="http://www.w3.org/2000/svg">
<path d="M28.228 16.0826C27.1853 16.0826 26.3697 15.2532 25.9682 14.2909C25.68 13.6003 25.2496 13.0157 24.6771 12.5371C23.6771 11.6886 22.1543 11.2644 20.1089 11.2644C18.8059 11.2644 17.7377 11.4235 16.9043 11.7417C16.0862 12.0447 15.4801 12.4614 15.0862 12.9917C14.6922 13.522 14.4877 14.128 14.4725 14.8098C14.4422 15.3705 14.5407 15.878 14.768 16.3326C15.0104 16.772 15.3892 17.1735 15.9043 17.5371C16.4195 17.8856 17.0786 18.2038 17.8816 18.4917C18.6846 18.7795 19.6392 19.0371 20.7453 19.2644L24.5634 20.0826C27.1392 20.628 29.3437 21.3477 31.1771 22.2417C33.0104 23.1356 34.5104 24.1886 35.6771 25.4008C36.8437 26.5977 37.6998 27.9462 38.2453 29.4462C38.8059 30.9462 39.0937 32.5826 39.1089 34.3553C39.0937 37.4159 38.3286 40.0068 36.8134 42.128C35.2983 44.2492 33.1316 45.8629 30.3134 46.9689C27.5104 48.075 24.1392 48.628 20.1998 48.628C16.1543 48.628 12.624 48.0295 9.60889 46.8326C6.60889 45.6356 4.27555 43.7947 2.60889 41.3098C1.25025 39.2532 0.445333 36.7248 0.19414 33.7248C0.101723 32.6211 1.00907 31.7189 2.11668 31.7189H10.2124C11.2757 31.7189 12.1161 32.5649 12.4048 33.5883C12.5844 34.2252 12.8419 34.7991 13.1771 35.3098C13.8134 36.2795 14.7074 37.0144 15.8589 37.5144C17.0256 38.0144 18.4119 38.2644 20.018 38.2644C21.3665 38.2644 22.4953 38.0977 23.4043 37.7644C24.3134 37.4311 25.0028 36.9689 25.4725 36.378C25.9422 35.7871 26.1846 35.1129 26.1998 34.3553C26.1846 33.6432 25.9498 33.022 25.4953 32.4917C25.0559 31.9462 24.3286 31.4614 23.3134 31.0371C22.2983 30.5977 20.9271 30.1886 19.1998 29.8098L14.5634 28.8098C10.4422 27.9159 7.19222 26.4235 4.81343 24.3326C2.4498 22.2265 1.27555 19.3553 1.2907 15.7189C1.27555 12.7644 2.06343 10.1811 3.65434 7.96894C5.2604 5.74167 7.4801 4.00682 10.3134 2.76439C13.1619 1.52197 16.4271 0.900757 20.1089 0.900757C23.8665 0.900757 27.1165 1.52954 29.8589 2.78712C32.6013 4.0447 34.715 5.81742 36.1998 8.1053C37.3609 9.86451 38.0771 11.8552 38.3485 14.0774C38.4829 15.1777 37.571 16.0826 36.4626 16.0826H28.228Z" fill="white"/>
<path d="M46.7215 48.0826C45.6169 48.0826 44.7215 47.1871 44.7215 46.0826V3.53712C44.7215 2.43255 45.6169 1.53712 46.7215 1.53712H76.2669C77.3715 1.53712 78.2669 2.43255 78.2669 3.53712V9.71894C78.2669 10.8235 77.3715 11.7189 76.2669 11.7189H59.3578C58.2533 11.7189 57.3578 12.6144 57.3578 13.7189V17.7189C57.3578 18.8235 58.2533 19.7189 59.3578 19.7189H74.5397C75.6442 19.7189 76.5397 20.6144 76.5397 21.7189V27.9008C76.5397 29.0053 75.6442 29.9008 74.5397 29.9008H59.3578C58.2533 29.9008 57.3578 30.7962 57.3578 31.9008V35.9008C57.3578 37.0053 58.2533 37.9008 59.3578 37.9008H76.176C77.2806 37.9008 78.176 38.7962 78.176 39.9008V46.0826C78.176 47.1871 77.2806 48.0826 76.176 48.0826H46.7215Z" fill="white"/>
<path d="M86.4496 48.0826C85.345 48.0826 84.4496 47.1871 84.4496 46.0826V3.53712C84.4496 2.43255 85.345 1.53712 86.4496 1.53712H95.0859C96.1905 1.53712 97.0859 2.43255 97.0859 3.53712V35.9008C97.0859 37.0053 97.9814 37.9008 99.0859 37.9008H113.904C115.009 37.9008 115.904 38.7962 115.904 39.9008V46.0826C115.904 47.1871 115.009 48.0826 113.904 48.0826H86.4496Z" fill="white"/>
<path d="M123.749 48.0826C122.645 48.0826 121.749 47.1871 121.749 46.0826V3.53712C121.749 2.43255 122.645 1.53712 123.749 1.53712H152.477C153.581 1.53712 154.477 2.43255 154.477 3.53712V9.71894C154.477 10.8235 153.581 11.7189 152.477 11.7189H136.386C135.281 11.7189 134.386 12.6144 134.386 13.7189V17.7189C134.386 18.8235 135.281 19.7189 136.386 19.7189H150.477C151.581 19.7189 152.477 20.6144 152.477 21.7189V27.9008C152.477 29.0053 151.581 29.9008 150.477 29.9008H136.386C135.281 29.9008 134.386 30.7962 134.386 31.9008V46.0826C134.386 47.1871 133.49 48.0826 132.386 48.0826H123.749Z" fill="white"/>
<path d="M2.01807 68.5555C0.913497 68.5555 0.0180664 67.66 0.0180664 66.5555V60.3737C0.0180664 59.2691 0.913497 58.3737 2.01807 58.3737H38.4726C39.5772 58.3737 40.4726 59.2691 40.4726 60.3737V66.5555C40.4726 67.66 39.5772 68.5555 38.4726 68.5555H28.4726C27.368 68.5555 26.4726 69.4509 26.4726 70.5555V102.919C26.4726 104.024 25.5772 104.919 24.4726 104.919H16.0181C14.9135 104.919 14.0181 104.024 14.0181 102.919V70.5555C14.0181 69.4509 13.1226 68.5555 12.0181 68.5555H2.01807Z" fill="white"/>
<path d="M48.6735 103.497C48.4186 104.341 47.6408 104.919 46.7588 104.919H37.3741C36.0115 104.919 35.0478 103.586 35.4749 102.292L49.5182 59.7468C49.7887 58.9272 50.5544 58.3737 51.4175 58.3737H65.7982C66.6612 58.3737 67.4269 58.9272 67.6974 59.7468L81.7408 102.292C82.1679 103.586 81.2042 104.919 79.8416 104.919H70.4568C69.5749 104.919 68.7971 104.341 68.5422 103.497L58.8422 71.3659C58.811 71.2626 58.7158 71.1918 58.6078 71.1918C58.4999 71.1918 58.4047 71.2626 58.3735 71.3659L48.6735 103.497ZM45.6987 88.5555C45.6987 87.4509 46.5942 86.5555 47.6987 86.5555H69.3351C70.4397 86.5555 71.3351 87.4509 71.3351 88.5555V94.01C71.3351 95.1146 70.4397 96.01 69.3351 96.01H47.6987C46.5942 96.01 45.6987 95.1146 45.6987 94.01V88.5555Z" fill="white"/>
<path d="M85.8908 104.919C84.7862 104.919 83.8908 104.024 83.8908 102.919V60.3737C83.8908 59.2691 84.7862 58.3737 85.8908 58.3737H103.982C107.436 58.3737 110.459 59.0555 113.05 60.4191C115.641 61.7827 117.656 63.6994 119.095 66.1691C120.535 68.6388 121.254 71.5252 121.254 74.8282C121.254 78.1615 120.512 81.0479 119.027 83.4873C117.557 85.9267 115.489 87.8055 112.823 89.1237C110.171 90.4418 107.073 91.1009 103.527 91.1009H93.5272C92.4226 91.1009 91.5272 90.2055 91.5272 89.1009V83.2827C91.5272 82.1782 92.4226 81.2827 93.5272 81.2827H100.982C102.467 81.2827 103.732 81.0252 104.777 80.51C105.838 79.9797 106.648 79.2297 107.209 78.26C107.785 77.2903 108.073 76.1464 108.073 74.8282C108.073 73.4949 107.785 72.3585 107.209 71.4191C106.648 70.4646 105.838 69.7373 104.777 69.2373C103.732 68.7221 102.467 68.4646 100.982 68.4646H98.5272C97.4226 68.4646 96.5272 69.36 96.5272 70.4646V102.919C96.5272 104.024 95.6317 104.919 94.5272 104.919H85.8908Z" fill="white"/>
<path d="M124.691 104.919C123.586 104.919 122.691 104.024 122.691 102.919V60.3737C122.691 59.2691 123.586 58.3737 124.691 58.3737H154.236C155.341 58.3737 156.236 59.2691 156.236 60.3737V66.5555C156.236 67.66 155.341 68.5555 154.236 68.5555H137.327C136.223 68.5555 135.327 69.4509 135.327 70.5555V74.5555C135.327 75.66 136.223 76.5555 137.327 76.5555H152.509C153.614 76.5555 154.509 77.4509 154.509 78.5555V84.7373C154.509 85.8419 153.614 86.7373 152.509 86.7373H137.327C136.223 86.7373 135.327 87.6327 135.327 88.7373V92.7373C135.327 93.8419 136.223 94.7373 137.327 94.7373H154.145C155.25 94.7373 156.145 95.6327 156.145 96.7373V102.919C156.145 104.024 155.25 104.919 154.145 104.919H124.691Z" fill="white"/>
<path d="M3.29077 159.097C2.1862 159.097 1.29077 158.202 1.29077 157.097V114.552C1.29077 113.447 2.1862 112.552 3.29077 112.552H21.4726C25.018 112.552 27.9953 113.029 30.4044 113.984C32.8286 114.938 34.6544 116.287 35.8817 118.029C37.1241 119.772 37.7453 121.825 37.7453 124.188C37.7453 125.9 37.3665 127.461 36.609 128.87C35.8665 130.279 34.8211 131.461 33.4726 132.416C32.1753 133.319 30.6678 133.957 28.9498 134.327C28.8311 134.353 28.7453 134.458 28.7453 134.579C28.7453 134.716 28.8539 134.829 28.9908 134.836C30.8944 134.943 32.6307 135.447 34.1999 136.347C35.8362 137.272 37.1393 138.552 38.109 140.188C39.0787 141.81 39.5635 143.719 39.5635 145.916C39.5635 148.461 38.8968 150.726 37.5635 152.711C36.2453 154.696 34.3665 156.257 31.9271 157.393C29.4877 158.529 26.5787 159.097 23.1999 159.097H3.29077ZM13.9271 147.007C13.9271 148.111 14.8226 149.007 15.9271 149.007H19.8362C21.9574 149.007 23.5483 148.613 24.609 147.825C25.6696 147.022 26.1999 145.84 26.1999 144.279C26.1999 143.188 25.9499 142.264 25.4499 141.507C24.9499 140.749 24.2377 140.173 23.3135 139.779C22.4044 139.385 21.3059 139.188 20.018 139.188H15.9271C14.8226 139.188 13.9271 140.084 13.9271 141.188V147.007ZM13.9271 129.37C13.9271 130.475 14.8226 131.37 15.9271 131.37H19.109C20.215 131.37 21.1923 131.196 22.0408 130.847C22.8893 130.499 23.5483 129.999 24.018 129.347C24.5029 128.681 24.7453 127.87 24.7453 126.916C24.7453 125.476 24.2302 124.378 23.1999 123.62C22.1696 122.847 20.8665 122.461 19.2908 122.461H15.9271C14.8226 122.461 13.9271 123.357 13.9271 124.461V129.37Z" fill="white"/>
<path d="M53.361 157.675C53.1061 158.52 52.3282 159.097 51.4463 159.097H42.0616C40.699 159.097 39.7353 157.765 40.1624 156.471L54.2057 113.925C54.4762 113.106 55.2419 112.552 56.1049 112.552H70.4857C71.3487 112.552 72.1144 113.106 72.3849 113.925L86.4282 156.471C86.8554 157.765 85.8917 159.097 84.529 159.097H75.1443C74.2624 159.097 73.4846 158.52 73.2297 157.675L63.5297 125.544C63.4985 125.441 63.4033 125.37 63.2953 125.37C63.1874 125.37 63.0922 125.441 63.061 125.544L53.361 157.675ZM50.3862 142.734C50.3862 141.629 51.2817 140.734 52.3862 140.734H74.0226C75.1272 140.734 76.0226 141.629 76.0226 142.734V148.188C76.0226 149.293 75.1272 150.188 74.0226 150.188H52.3862C51.2817 150.188 50.3862 149.293 50.3862 148.188V142.734Z" fill="white"/>
<path d="M83.4305 122.734C82.326 122.734 81.4305 121.838 81.4305 120.734V114.552C81.4305 113.447 82.326 112.552 83.4305 112.552H119.885C120.99 112.552 121.885 113.447 121.885 114.552V120.734C121.885 121.838 120.99 122.734 119.885 122.734H109.885C108.781 122.734 107.885 123.629 107.885 124.734V157.097C107.885 158.202 106.99 159.097 105.885 159.097H97.4305C96.326 159.097 95.4305 158.202 95.4305 157.097V124.734C95.4305 123.629 94.5351 122.734 93.4305 122.734H83.4305Z" fill="white"/>
<path d="M124.168 122.734C123.063 122.734 122.168 121.838 122.168 120.734V114.552C122.168 113.447 123.063 112.552 124.168 112.552H160.623C161.727 112.552 162.623 113.447 162.623 114.552V120.734C162.623 121.838 161.727 122.734 160.623 122.734H150.623C149.518 122.734 148.623 123.629 148.623 124.734V157.097C148.623 158.202 147.727 159.097 146.623 159.097H138.168C137.063 159.097 136.168 158.202 136.168 157.097V124.734C136.168 123.629 135.273 122.734 134.168 122.734H124.168Z" fill="white"/>
<path d="M166.178 159.097C165.074 159.097 164.178 158.202 164.178 157.097V114.552C164.178 113.447 165.074 112.552 166.178 112.552H174.815C175.919 112.552 176.815 113.447 176.815 114.552V146.916C176.815 148.02 177.71 148.916 178.815 148.916H193.633C194.737 148.916 195.633 149.811 195.633 150.916V157.097C195.633 158.202 194.737 159.097 193.633 159.097H166.178Z" fill="white"/>
<path d="M199.541 159.097C198.436 159.097 197.541 158.202 197.541 157.097V114.552C197.541 113.447 198.436 112.552 199.541 112.552H229.086C230.191 112.552 231.086 113.447 231.086 114.552V120.734C231.086 121.838 230.191 122.734 229.086 122.734H212.177C211.073 122.734 210.177 123.629 210.177 124.734V128.734C210.177 129.838 211.073 130.734 212.177 130.734H227.359C228.464 130.734 229.359 131.629 229.359 132.734V138.916C229.359 140.02 228.464 140.916 227.359 140.916H212.177C211.073 140.916 210.177 141.811 210.177 142.916V146.916C210.177 148.02 211.073 148.916 212.177 148.916H228.995C230.1 148.916 230.995 149.811 230.995 150.916V157.097C230.995 158.202 230.1 159.097 228.995 159.097H199.541Z" fill="white"/>
<rect x="119.074" y="112.552" width="8.69377" height="10.1834" fill="white"/>
</svg>
