<svg width="323" height="108" viewBox="0 0 323 108" fill="none" xmlns="http://www.w3.org/2000/svg">
<path d="M28.676 15.9914C27.6333 15.9914 26.8177 15.162 26.4162 14.1997C26.128 13.5091 25.6976 12.9245 25.1251 12.4459C24.1251 11.5974 22.6023 11.1732 20.5569 11.1732C19.2539 11.1732 18.1857 11.3323 17.3523 11.6505C16.5342 11.9535 15.9281 12.3702 15.5342 12.9005C15.1402 13.4308 14.9357 14.0368 14.9205 14.7187C14.8902 15.2793 14.9887 15.7868 15.216 16.2414C15.4584 16.6808 15.8372 17.0823 16.3523 17.4459C16.8675 17.7944 17.5266 18.1126 18.3296 18.4005C19.1326 18.6884 20.0872 18.9459 21.1932 19.1732L25.0114 19.9914C27.5872 20.5368 29.7917 21.2565 31.6251 22.1505C33.4584 23.0444 34.9584 24.0975 36.1251 25.3096C37.2917 26.5065 38.1478 27.855 38.6933 29.355C39.2539 30.855 39.5417 32.4914 39.5569 34.2641C39.5417 37.3247 38.7766 39.9156 37.2614 42.0368C35.7463 44.1581 33.5796 45.7717 30.7614 46.8778C27.9584 47.9838 24.5872 48.5368 20.6478 48.5368C16.6023 48.5368 13.072 47.9384 10.0569 46.7414C7.05688 45.5444 4.72355 43.7035 3.05688 41.2187C1.69825 39.162 0.893331 36.6337 0.642138 33.6336C0.549721 32.5299 1.45707 31.6278 2.56468 31.6278H10.6604C11.7237 31.6278 12.5641 32.4738 12.8528 33.4971C13.0324 34.134 13.2899 34.7079 13.6251 35.2187C14.2614 36.1884 15.1554 36.9232 16.3069 37.4232C17.4736 37.9232 18.8599 38.1732 20.466 38.1732C21.8145 38.1732 22.9432 38.0065 23.8523 37.6732C24.7614 37.3399 25.4508 36.8778 25.9205 36.2868C26.3902 35.6959 26.6326 35.0217 26.6478 34.2641C26.6326 33.552 26.3978 32.9308 25.9432 32.4005C25.5039 31.855 24.7766 31.3702 23.7614 30.9459C22.7463 30.5065 21.3751 30.0975 19.6478 29.7187L15.0114 28.7187C10.8902 27.8247 7.64022 26.3323 5.26143 24.2414C2.89779 22.1353 1.72355 19.2641 1.7387 15.6278C1.72355 12.6732 2.51143 10.0899 4.10234 7.87775C5.7084 5.65048 7.9281 3.91563 10.7614 2.67321C13.6099 1.43078 16.8751 0.80957 20.5569 0.80957C24.3145 0.80957 27.5645 1.43836 30.3069 2.69593C33.0493 3.95351 35.1629 5.72624 36.6478 8.01412C37.8089 9.77332 38.5251 11.764 38.7965 13.9862C38.9309 15.0865 38.019 15.9914 36.9105 15.9914H28.676Z" fill="white"/>
<path d="M47.1695 47.9914C46.0649 47.9914 45.1695 47.096 45.1695 45.9914V3.44594C45.1695 2.34137 46.0649 1.44593 47.1695 1.44593H76.7149C77.8195 1.44593 78.7149 2.34136 78.7149 3.44593V9.62775C78.7149 10.7323 77.8195 11.6278 76.7149 11.6278H59.8058C58.7013 11.6278 57.8058 12.5232 57.8058 13.6278V17.6278C57.8058 18.7323 58.7013 19.6278 59.8058 19.6278H74.9877C76.0922 19.6278 76.9877 20.5232 76.9877 21.6278V27.8096C76.9877 28.9141 76.0922 29.8096 74.9877 29.8096H59.8058C58.7013 29.8096 57.8058 30.705 57.8058 31.8096V35.8096C57.8058 36.9141 58.7013 37.8096 59.8058 37.8096H76.624C77.7286 37.8096 78.624 38.705 78.624 39.8096V45.9914C78.624 47.096 77.7286 47.9914 76.624 47.9914H47.1695Z" fill="white"/>
<path d="M86.8976 47.9914C85.793 47.9914 84.8976 47.096 84.8976 45.9914V3.44594C84.8976 2.34137 85.793 1.44593 86.8976 1.44593H95.5339C96.6385 1.44593 97.5339 2.34136 97.5339 3.44593V35.8096C97.5339 36.9141 98.4294 37.8096 99.5339 37.8096H114.352C115.457 37.8096 116.352 38.705 116.352 39.8096V45.9914C116.352 47.096 115.457 47.9914 114.352 47.9914H86.8976Z" fill="white"/>
<path d="M124.197 47.9914C123.093 47.9914 122.197 47.096 122.197 45.9914V3.44594C122.197 2.34137 123.093 1.44593 124.197 1.44593H152.925C154.029 1.44593 154.925 2.34136 154.925 3.44593V9.62775C154.925 10.7323 154.029 11.6278 152.925 11.6278H136.834C135.729 11.6278 134.834 12.5232 134.834 13.6278V17.6278C134.834 18.7323 135.729 19.6278 136.834 19.6278H150.925C152.029 19.6278 152.925 20.5232 152.925 21.6278V27.8096C152.925 28.9141 152.029 29.8096 150.925 29.8096H136.834C135.729 29.8096 134.834 30.705 134.834 31.8096V45.9914C134.834 47.096 133.938 47.9914 132.834 47.9914H124.197Z" fill="white"/>
<path d="M168.737 10.9914C167.633 10.9914 166.737 10.096 166.737 8.99139V2.80957C166.737 1.705 167.633 0.80957 168.737 0.80957H205.192C206.297 0.80957 207.192 1.705 207.192 2.80957V8.99139C207.192 10.096 206.297 10.9914 205.192 10.9914H195.192C194.087 10.9914 193.192 11.8868 193.192 12.9914V45.355C193.192 46.4596 192.297 47.355 191.192 47.355H182.737C181.633 47.355 180.737 46.4596 180.737 45.355V12.9914C180.737 11.8868 179.842 10.9914 178.737 10.9914H168.737Z" fill="white"/>
<path d="M215.393 45.933C215.138 46.7773 214.36 47.355 213.478 47.355H204.093C202.731 47.355 201.767 46.0221 202.194 44.7281L216.238 2.18268C216.508 1.36315 217.274 0.80957 218.137 0.80957H232.518C233.381 0.80957 234.146 1.36315 234.417 2.18268L248.46 44.7281C248.887 46.0221 247.924 47.355 246.561 47.355H237.176C236.294 47.355 235.516 46.7773 235.262 45.933L225.562 13.8018C225.53 13.6985 225.435 13.6278 225.327 13.6278V13.6278C225.219 13.6278 225.124 13.6985 225.093 13.8018L215.393 45.933ZM212.418 30.9914C212.418 29.8868 213.314 28.9914 214.418 28.9914H236.054C237.159 28.9914 238.054 29.8868 238.054 30.9914V36.4459C238.054 37.5505 237.159 38.4459 236.054 38.4459H214.418C213.314 38.4459 212.418 37.5505 212.418 36.4459V30.9914Z" fill="white"/>
<path d="M252.61 47.355C251.506 47.355 250.61 46.4596 250.61 45.355V2.80957C250.61 1.705 251.506 0.80957 252.61 0.80957H270.701C274.156 0.80957 277.178 1.49139 279.769 2.85503C282.36 4.21866 284.375 6.13533 285.815 8.60503C287.254 11.0747 287.974 13.9611 287.974 17.2641C287.974 20.5974 287.231 23.4838 285.747 25.9232C284.277 28.3626 282.209 30.2414 279.542 31.5596C276.89 32.8778 273.792 33.5368 270.247 33.5368H260.247C259.142 33.5368 258.247 32.6414 258.247 31.5368V25.7187C258.247 24.6141 259.142 23.7187 260.247 23.7187H267.701C269.186 23.7187 270.451 23.4611 271.497 22.9459C272.557 22.4156 273.368 21.6656 273.928 20.6959C274.504 19.7262 274.792 18.5823 274.792 17.2641C274.792 15.9308 274.504 14.7944 273.928 13.855C273.368 12.9005 272.557 12.1732 271.497 11.6732C270.451 11.1581 269.186 10.9005 267.701 10.9005H265.247C264.142 10.9005 263.247 11.7959 263.247 12.9005V45.355C263.247 46.4596 262.351 47.355 261.247 47.355H252.61Z" fill="white"/>
<path d="M291.41 47.355C290.306 47.355 289.41 46.4596 289.41 45.355V2.80957C289.41 1.705 290.306 0.80957 291.41 0.80957H320.956C322.06 0.80957 322.956 1.705 322.956 2.80957V8.99139C322.956 10.096 322.06 10.9914 320.956 10.9914H304.047C302.942 10.9914 302.047 11.8868 302.047 12.9914V16.9914C302.047 18.096 302.942 18.9914 304.047 18.9914H319.228C320.333 18.9914 321.228 19.8868 321.228 20.9914V27.1732C321.228 28.2778 320.333 29.1732 319.228 29.1732H304.047C302.942 29.1732 302.047 30.0686 302.047 31.1732V35.1732C302.047 36.2778 302.942 37.1732 304.047 37.1732H320.865C321.969 37.1732 322.865 38.0686 322.865 39.1732V45.355C322.865 46.4596 321.969 47.355 320.865 47.355H291.41Z" fill="white"/>
<path d="M53.8397 107.899C52.7351 107.899 51.8397 107.003 51.8397 105.899V63.3532C51.8397 62.2486 52.7352 61.3531 53.8397 61.3531H72.0215C75.567 61.3531 78.5443 61.8304 80.9534 62.785C83.3776 63.7395 85.2034 65.088 86.4306 66.8304C87.6731 68.5728 88.2943 70.6259 88.2943 72.9895C88.2943 74.7016 87.9155 76.2622 87.1579 77.6713C86.4155 79.0804 85.37 80.2622 84.0215 81.2168C82.7243 82.1205 81.2167 82.7578 79.4988 83.1286C79.38 83.1543 79.2943 83.2587 79.2943 83.3802V83.3802C79.2943 83.5174 79.4028 83.6297 79.5398 83.6374C81.4433 83.7441 83.1797 84.2478 84.7488 85.1486C86.3852 86.0728 87.6882 87.3531 88.6579 88.9895C89.6276 90.6107 90.1124 92.5198 90.1124 94.7168C90.1124 97.2622 89.4458 99.5274 88.1124 101.512C86.7943 103.497 84.9155 105.058 82.4761 106.194C80.0367 107.33 77.1276 107.899 73.7488 107.899H53.8397ZM64.4761 95.8077C64.4761 96.9123 65.3715 97.8077 66.4761 97.8077H70.3852C72.5064 97.8077 74.0973 97.4138 75.1579 96.6259C76.2185 95.8228 76.7488 94.641 76.7488 93.0804C76.7488 91.9895 76.4988 91.0653 75.9988 90.3077C75.4988 89.5501 74.7867 88.9744 73.8624 88.5804C72.9534 88.1865 71.8549 87.9895 70.567 87.9895H66.4761C65.3715 87.9895 64.4761 88.8849 64.4761 89.9895V95.8077ZM64.4761 78.1713C64.4761 79.2759 65.3715 80.1713 66.4761 80.1713H69.6579C70.764 80.1713 71.7412 79.9971 72.5897 79.6486C73.4382 79.3001 74.0973 78.8001 74.567 78.1486C75.0518 77.4819 75.2943 76.6713 75.2943 75.7168C75.2943 74.2774 74.7791 73.1789 73.7488 72.4213C72.7185 71.6486 71.4155 71.2622 69.8397 71.2622H66.4761C65.3715 71.2622 64.4761 72.1577 64.4761 73.2622V78.1713Z" fill="white"/>
<path d="M103.91 106.477C103.655 107.321 102.877 107.899 101.995 107.899H92.6106C91.2479 107.899 90.2842 106.566 90.7113 105.272L104.755 62.7263C105.025 61.9067 105.791 61.3531 106.654 61.3531H121.035C121.898 61.3531 122.663 61.9067 122.934 62.7263L136.977 105.272C137.404 106.566 136.441 107.899 135.078 107.899H125.693C124.811 107.899 124.034 107.321 123.779 106.477L114.079 74.3454C114.047 74.242 113.952 74.1713 113.844 74.1713V74.1713C113.736 74.1713 113.641 74.242 113.61 74.3454L103.91 106.477ZM100.935 91.535C100.935 90.4304 101.831 89.535 102.935 89.535H124.572C125.676 89.535 126.572 90.4304 126.572 91.535V96.9895C126.572 98.0941 125.676 98.9895 124.572 98.9895H102.935C101.831 98.9895 100.935 98.0941 100.935 96.9895V91.535Z" fill="white"/>
<path d="M133.979 71.535C132.875 71.535 131.979 70.6395 131.979 69.535V63.3531C131.979 62.2486 132.875 61.3531 133.979 61.3531H170.434C171.539 61.3531 172.434 62.2486 172.434 63.3531V69.535C172.434 70.6395 171.539 71.535 170.434 71.535H160.434C159.329 71.535 158.434 72.4304 158.434 73.535V105.899C158.434 107.003 157.539 107.899 156.434 107.899H147.979C146.875 107.899 145.979 107.003 145.979 105.899V73.535C145.979 72.4304 145.084 71.535 143.979 71.535H133.979Z" fill="white"/>
<path d="M174.717 71.535C173.612 71.535 172.717 70.6395 172.717 69.535V63.3531C172.717 62.2486 173.612 61.3531 174.717 61.3531H211.172C212.276 61.3531 213.172 62.2486 213.172 63.3531V69.535C213.172 70.6395 212.276 71.535 211.172 71.535H201.172C200.067 71.535 199.172 72.4304 199.172 73.535V105.899C199.172 107.003 198.276 107.899 197.172 107.899H188.717C187.612 107.899 186.717 107.003 186.717 105.899V73.535C186.717 72.4304 185.822 71.535 184.717 71.535H174.717Z" fill="white"/>
<path d="M216.727 107.899C215.623 107.899 214.727 107.003 214.727 105.899V63.3532C214.727 62.2486 215.623 61.3531 216.727 61.3531H225.364C226.468 61.3531 227.364 62.2486 227.364 63.3531V95.7168C227.364 96.8214 228.259 97.7168 229.364 97.7168H244.182C245.286 97.7168 246.182 98.6122 246.182 99.7168V105.899C246.182 107.003 245.286 107.899 244.182 107.899H216.727Z" fill="white"/>
<path d="M250.09 107.899C248.985 107.899 248.09 107.003 248.09 105.899V63.3532C248.09 62.2486 248.985 61.3531 250.09 61.3531H279.635C280.74 61.3531 281.635 62.2486 281.635 63.3531V69.535C281.635 70.6395 280.74 71.535 279.635 71.535H262.726C261.622 71.535 260.726 72.4304 260.726 73.535V77.535C260.726 78.6395 261.622 79.535 262.726 79.535H277.908C279.012 79.535 279.908 80.4304 279.908 81.535V87.7168C279.908 88.8214 279.012 89.7168 277.908 89.7168H262.726C261.622 89.7168 260.726 90.6122 260.726 91.7168V95.7168C260.726 96.8214 261.622 97.7168 262.726 97.7168H279.544C280.649 97.7168 281.544 98.6122 281.544 99.7168V105.899C281.544 107.003 280.649 107.899 279.544 107.899H250.09Z" fill="white"/>
<rect x="169.623" y="61.3531" width="8.69377" height="10.1834" fill="white"/>
</svg>
