<svg width="400" height="400" viewBox="0 0 400 400" fill="none" xmlns="http://www.w3.org/2000/svg">
<rect width="400" height="400" fill="#D52317"/>
<path d="M100.913 285.665L105.499 275.124C105.586 274.921 105.716 274.624 105.89 274.233C107.238 271.146 107.926 268.951 107.955 267.647C109.824 267.719 111.287 267.777 112.345 267.821C113.417 267.85 114.28 267.864 114.932 267.864C115.627 267.864 116.511 267.85 117.583 267.821C118.67 267.777 120.191 267.719 122.148 267.647V270.342C120.467 270.342 119.373 270.538 118.866 270.929C118.358 271.306 118.105 272.03 118.105 273.102C118.105 273.378 118.141 274.175 118.214 275.493C118.301 276.812 118.409 278.268 118.54 279.862L118.866 283.752C118.938 284.665 119.025 285.897 119.126 287.447C119.445 291.707 119.786 294.2 120.148 294.924C120.351 295.301 120.662 295.583 121.083 295.772C121.503 295.946 122.053 296.032 122.734 296.032C122.821 296.032 122.944 296.025 123.104 296.011C123.278 295.996 123.408 295.989 123.495 295.989L123.473 298.662C121.706 298.561 120.083 298.488 118.605 298.445C117.127 298.387 115.844 298.358 114.758 298.358C113.801 298.358 112.62 298.387 111.215 298.445C109.824 298.488 108.266 298.561 106.542 298.662L106.52 295.989H107.151C108.556 295.989 109.512 295.786 110.02 295.38C110.541 294.96 110.802 294.2 110.802 293.098C110.802 292.562 110.795 292.164 110.78 291.903C110.78 291.642 110.773 291.403 110.759 291.186L109.737 276.145L102.347 292.968C101.681 294.489 101.188 295.677 100.869 296.532C100.565 297.387 100.355 298.097 100.239 298.662H96.305C96.189 298.01 96.0224 297.308 95.8051 296.554C95.5877 295.801 95.2327 294.765 94.7401 293.446L88.0458 275.689C87.5531 280.297 87.1691 284.122 86.8938 287.165C86.633 290.208 86.5026 292.171 86.5026 293.055C86.5026 294.171 86.7417 294.938 87.2198 295.359C87.7125 295.779 88.6326 295.989 89.9802 295.989H90.241V298.662C88.2704 298.532 86.8141 298.452 85.8723 298.423C84.9449 298.38 84.1625 298.358 83.5249 298.358C82.757 298.358 80.9747 298.445 78.1782 298.619L77.4175 298.662V295.989C77.5044 295.989 77.6348 295.996 77.8087 296.011C77.9971 296.025 78.1347 296.032 78.2217 296.032C79.1345 296.032 79.8155 295.895 80.2647 295.62C80.7284 295.33 81.0689 294.83 81.2863 294.12C81.4457 293.642 81.7282 291.7 82.1339 288.295C82.3223 286.744 82.4744 285.513 82.5903 284.6L83.1989 279.514C83.4308 277.674 83.5974 276.203 83.6988 275.102C83.8147 273.986 83.8727 273.218 83.8727 272.798C83.8727 271.871 83.6626 271.226 83.2424 270.864C82.8222 270.487 82.0542 270.299 80.9385 270.299C80.8516 270.299 80.7139 270.306 80.5255 270.32C80.3372 270.335 80.1923 270.342 80.0909 270.342V267.69C81.4384 267.748 82.6845 267.792 83.8292 267.821C84.9739 267.85 85.981 267.864 86.8504 267.864C87.7342 267.864 88.7703 267.843 89.9584 267.799C91.1466 267.741 92.697 267.654 94.6097 267.538V267.734C94.6097 268.734 95.5515 271.646 97.4352 276.471C98.8986 280.195 100.058 283.26 100.913 285.665Z" fill="#FF6B2C"/>
<path d="M141.252 274.319L136.992 284.687C137.471 284.701 138.079 284.723 138.818 284.752C139.572 284.767 140.042 284.774 140.231 284.774C140.97 284.774 142.259 284.752 144.1 284.709C144.462 284.694 144.73 284.687 144.904 284.687L141.252 274.319ZM139.687 267.277H147.621C149.562 272.595 151.417 277.551 153.185 282.144C154.953 286.737 156.394 290.36 157.51 293.011C158.017 294.301 158.553 295.12 159.118 295.467C159.683 295.815 160.582 295.989 161.813 295.989H162.053L162.031 298.662C160.249 298.561 158.604 298.488 157.097 298.445C155.605 298.387 154.315 298.358 153.228 298.358C152.141 298.358 150.845 298.387 149.338 298.445C147.845 298.488 146.208 298.561 144.426 298.662V295.989H144.73C145.976 295.989 146.853 295.837 147.36 295.533C147.867 295.214 148.121 294.685 148.121 293.946C148.121 293.729 148.077 293.453 147.99 293.12C147.903 292.787 147.78 292.425 147.621 292.033L146.469 289.056C145.701 289.041 144.868 289.034 143.969 289.034C143.071 289.019 141.723 289.012 139.927 289.012C139.26 289.012 138.543 289.019 137.775 289.034C137.007 289.034 136.195 289.041 135.341 289.056C135.268 289.201 135.174 289.403 135.058 289.664C134.116 291.751 133.645 293.106 133.645 293.729C133.645 294.526 133.892 295.091 134.384 295.424C134.877 295.757 135.768 295.946 137.058 295.989V298.662C134.797 298.532 133.24 298.452 132.385 298.423C131.53 298.38 130.82 298.358 130.255 298.358C129.617 298.358 128.842 298.38 127.929 298.423C127.016 298.452 125.538 298.532 123.495 298.662V295.989C125.741 295.989 127.4 294.852 128.472 292.577C128.632 292.243 128.755 291.99 128.842 291.816C130.755 287.817 132.609 283.789 134.406 279.731C136.203 275.674 137.963 271.523 139.687 267.277Z" fill="#FF6B2C"/>
<path d="M184.483 267.647C186.642 267.763 188.236 267.843 189.264 267.886C190.308 267.929 191.177 267.951 191.873 267.951C192.554 267.951 193.394 267.929 194.394 267.886C195.408 267.843 196.944 267.763 199.002 267.647V270.299C198.915 270.284 198.828 270.277 198.741 270.277C198.654 270.262 198.516 270.255 198.328 270.255C197.342 270.255 196.364 270.538 195.394 271.103C194.437 271.653 192.952 272.899 190.938 274.841L185.026 280.644L194.068 290.838C194.416 291.229 194.894 291.787 195.502 292.511C197.473 294.859 199.175 296.032 200.61 296.032C200.813 296.032 200.965 296.032 201.066 296.032C201.168 296.018 201.262 296.003 201.349 295.989V298.662C199.465 298.575 197.98 298.517 196.893 298.488C195.807 298.46 194.894 298.445 194.155 298.445C193.633 298.445 192.909 298.46 191.981 298.488C191.054 298.517 189.612 298.575 187.656 298.662C187.685 298.59 187.707 298.525 187.721 298.467C187.736 298.394 187.743 298.278 187.743 298.119C187.743 297.09 185.642 294.192 181.44 289.425C179.281 286.991 177.549 285.013 176.245 283.492L183.722 275.863C185.07 274.501 185.939 273.544 186.33 272.994C186.736 272.429 186.939 271.965 186.939 271.603C186.939 271.168 186.736 270.842 186.33 270.625C185.939 270.407 185.323 270.299 184.483 270.299V267.647ZM163.661 267.647C165.4 267.748 166.957 267.828 168.334 267.886C169.71 267.929 170.819 267.951 171.659 267.951C172.963 267.951 174.333 267.929 175.767 267.886C177.202 267.828 178.687 267.748 180.223 267.647V270.299H179.592C178.274 270.299 177.383 270.625 176.919 271.277C176.47 271.929 176.245 273.725 176.245 276.667V290.338C176.245 292.903 176.47 294.497 176.919 295.12C177.368 295.728 178.23 296.032 179.505 296.032C179.766 296.032 179.969 296.032 180.114 296.032C180.273 296.018 180.411 296.011 180.527 296.011V298.619C178.209 298.503 176.412 298.423 175.137 298.38C173.876 298.336 172.797 298.315 171.898 298.315C171.145 298.315 170.094 298.344 168.747 298.402C167.399 298.445 165.566 298.532 163.248 298.662V295.989C163.364 295.989 163.509 295.996 163.683 296.011C163.871 296.025 164.009 296.032 164.096 296.032C165.443 296.032 166.342 295.743 166.791 295.163C167.254 294.583 167.486 293.374 167.486 291.533C167.486 291.244 167.493 290.302 167.508 288.708C167.537 287.099 167.559 285.687 167.573 284.47L167.617 281.34V279.297C167.617 278.761 167.624 278.058 167.638 277.188C167.653 276.319 167.66 275.718 167.66 275.384C167.66 273.24 167.428 271.856 166.965 271.233C166.515 270.61 165.646 270.299 164.356 270.299H163.661V267.647Z" fill="#FF6B2C"/>
<path d="M220.649 271.277C217.954 271.277 215.868 272.276 214.39 274.276C212.926 276.276 212.195 279.108 212.195 282.774C212.195 286.701 212.919 289.693 214.368 291.751C215.831 293.808 217.969 294.837 220.78 294.837C223.373 294.837 225.366 293.859 226.757 291.903C228.148 289.947 228.843 287.143 228.843 283.492C228.843 279.594 228.126 276.587 226.692 274.472C225.257 272.342 223.243 271.277 220.649 271.277ZM202.175 283.252C202.175 278.529 203.957 274.602 207.522 271.472C211.101 268.328 215.592 266.756 220.997 266.756C226.228 266.756 230.51 268.306 233.842 271.407C237.175 274.493 238.841 278.456 238.841 283.296C238.841 288.02 237.103 291.91 233.625 294.967C230.162 298.025 225.728 299.553 220.323 299.553C214.861 299.553 210.47 298.061 207.152 295.076C203.834 292.091 202.175 288.15 202.175 283.252Z" fill="#FF6B2C"/>
<path d="M264.01 285.665L268.596 275.124C268.683 274.921 268.813 274.624 268.987 274.233C270.335 271.146 271.023 268.951 271.052 267.647C272.921 267.719 274.385 267.777 275.443 267.821C276.515 267.85 277.377 267.864 278.029 267.864C278.725 267.864 279.608 267.85 280.681 267.821C281.767 267.777 283.289 267.719 285.245 267.647V270.342C283.564 270.342 282.47 270.538 281.963 270.929C281.456 271.306 281.202 272.03 281.202 273.102C281.202 273.378 281.239 274.175 281.311 275.493C281.398 276.812 281.507 278.268 281.637 279.862L281.963 283.752C282.035 284.665 282.122 285.897 282.224 287.447C282.543 291.707 282.883 294.2 283.245 294.924C283.448 295.301 283.76 295.583 284.18 295.772C284.6 295.946 285.151 296.032 285.832 296.032C285.919 296.032 286.042 296.025 286.201 296.011C286.375 295.996 286.506 295.989 286.592 295.989L286.571 298.662C284.803 298.561 283.18 298.488 281.702 298.445C280.224 298.387 278.942 298.358 277.855 298.358C276.899 298.358 275.718 298.387 274.312 298.445C272.921 298.488 271.364 298.561 269.639 298.662L269.618 295.989H270.248C271.653 295.989 272.61 295.786 273.117 295.38C273.639 294.96 273.899 294.2 273.899 293.098C273.899 292.562 273.892 292.164 273.878 291.903C273.878 291.642 273.87 291.403 273.856 291.186L272.834 276.145L265.445 292.968C264.778 294.489 264.285 295.677 263.967 296.532C263.662 297.387 263.452 298.097 263.336 298.662H259.402C259.286 298.01 259.12 297.308 258.902 296.554C258.685 295.801 258.33 294.765 257.837 293.446L251.143 275.689C250.651 280.297 250.267 284.122 249.991 287.165C249.73 290.208 249.6 292.171 249.6 293.055C249.6 294.171 249.839 294.938 250.317 295.359C250.81 295.779 251.73 295.989 253.078 295.989H253.338V298.662C251.368 298.532 249.912 298.452 248.97 298.423C248.042 298.38 247.26 298.358 246.622 298.358C245.854 298.358 244.072 298.445 241.276 298.619L240.515 298.662V295.989C240.602 295.989 240.732 295.996 240.906 296.011C241.094 296.025 241.232 296.032 241.319 296.032C242.232 296.032 242.913 295.895 243.362 295.62C243.826 295.33 244.166 294.83 244.384 294.12C244.543 293.642 244.826 291.7 245.231 288.295C245.42 286.744 245.572 285.513 245.688 284.6L246.296 279.514C246.528 277.674 246.695 276.203 246.796 275.102C246.912 273.986 246.97 273.218 246.97 272.798C246.97 271.871 246.76 271.226 246.34 270.864C245.92 270.487 245.152 270.299 244.036 270.299C243.949 270.299 243.811 270.306 243.623 270.32C243.435 270.335 243.29 270.342 243.188 270.342V267.69C244.536 267.748 245.782 267.792 246.927 267.821C248.071 267.85 249.078 267.864 249.948 267.864C250.832 267.864 251.868 267.843 253.056 267.799C254.244 267.741 255.794 267.654 257.707 267.538V267.734C257.707 268.734 258.649 271.646 260.533 276.471C261.996 280.195 263.155 283.26 264.01 285.665Z" fill="#FF6B2C"/>
<path d="M304.35 274.319L300.09 284.687C300.568 284.701 301.177 284.723 301.915 284.752C302.669 284.767 303.14 284.774 303.328 284.774C304.067 284.774 305.357 284.752 307.197 284.709C307.559 284.694 307.827 284.687 308.001 284.687L304.35 274.319ZM302.785 267.277H310.718C312.66 272.595 314.514 277.551 316.282 282.144C318.05 286.737 319.492 290.36 320.607 293.011C321.115 294.301 321.651 295.12 322.216 295.467C322.781 295.815 323.679 295.989 324.911 295.989H325.15L325.128 298.662C323.346 298.561 321.701 298.488 320.194 298.445C318.702 298.387 317.412 298.358 316.326 298.358C315.239 298.358 313.942 298.387 312.435 298.445C310.943 298.488 309.305 298.561 307.523 298.662V295.989H307.827C309.073 295.989 309.95 295.837 310.457 295.533C310.964 295.214 311.218 294.685 311.218 293.946C311.218 293.729 311.174 293.453 311.088 293.12C311.001 292.787 310.877 292.425 310.718 292.033L309.566 289.056C308.798 289.041 307.965 289.034 307.067 289.034C306.168 289.019 304.821 289.012 303.024 289.012C302.357 289.012 301.64 289.019 300.872 289.034C300.104 289.034 299.293 289.041 298.438 289.056C298.365 289.201 298.271 289.403 298.155 289.664C297.214 291.751 296.743 293.106 296.743 293.729C296.743 294.526 296.989 295.091 297.482 295.424C297.974 295.757 298.865 295.946 300.155 295.989V298.662C297.895 298.532 296.337 298.452 295.482 298.423C294.627 298.38 293.917 298.358 293.352 298.358C292.714 298.358 291.939 298.38 291.026 298.423C290.114 298.452 288.636 298.532 286.592 298.662V295.989C288.838 295.989 290.498 294.852 291.57 292.577C291.729 292.243 291.852 291.99 291.939 291.816C293.852 287.817 295.707 283.789 297.503 279.731C299.3 275.674 301.061 271.523 302.785 267.277Z" fill="#FF6B2C"/>
<path d="M156.659 295.794H165.815V298.19C162.211 298.293 160.185 298.541 156.659 298.36V295.794Z" fill="#FF6B2C"/>
<path d="M76.4622 298.625L77.1923 295.586L75.1946 295.413L74.8501 297.243L76.4622 298.625Z" fill="#D52317"/>
<path d="M133.228 245.915L135.159 243.208L132.811 242.475L131.764 244.133L133.228 245.915Z" fill="#D52317"/>
<path d="M166.444 292.689L168.375 289.981L166.027 289.249L164.979 290.906L166.444 292.689Z" fill="#D52317"/>
<path d="M181.796 306.377L183.727 303.669L181.379 302.937L180.332 304.594L181.796 306.377Z" fill="#D52317"/>
<path d="M142.86 280.758L145.023 278.901L142.821 278.704L141.627 279.826L142.86 280.758Z" fill="#D52317"/>
<path d="M86.2746 261.889L86.5927 258.578L84.1938 259.118L84.1149 261.077L86.2746 261.889Z" fill="#D52317"/>
<path d="M156.443 269.368L158.373 266.66L156.026 265.928L154.978 267.585L156.443 269.368Z" fill="#D52317"/>
<path d="M128.472 287.777L130.635 285.92L128.433 285.723L127.239 286.845L128.472 287.777Z" fill="#D52317"/>
<path d="M112.919 258.779L114.849 256.071L112.502 255.339L111.454 256.996L112.919 258.779Z" fill="#D52317"/>
<path d="M130.213 281.898L132.375 280.041L130.174 279.844L128.98 280.966L130.213 281.898Z" fill="#D52317"/>
<path d="M154.873 304.242L158.145 303.646L156.972 301.485L155.066 301.942L154.873 304.242Z" fill="#D52317"/>
<path d="M90.1895 286.865L90.9195 283.826L88.9218 283.653L88.5774 285.482L90.1895 286.865Z" fill="#D52317"/>
<path d="M205.53 292.61L206.26 289.571L204.262 289.397L203.918 291.227L205.53 292.61Z" fill="#D52317"/>
<path d="M295.512 286.673L297.442 283.965L295.095 283.233L294.047 284.89L295.512 286.673Z" fill="#D52317"/>
<path d="M310.864 300.361L312.795 297.653L310.447 296.921L309.4 298.578L310.864 300.361Z" fill="#D52317"/>
<path d="M271.928 274.742L274.09 272.885L271.889 272.688L270.695 273.81L271.928 274.742Z" fill="#D52317"/>
<path d="M215.342 255.873L215.661 252.562L213.262 253.102L213.183 255.061L215.342 255.873Z" fill="#D52317"/>
<path d="M285.51 263.352L287.441 260.644L285.094 259.912L284.046 261.569L285.51 263.352Z" fill="#D52317"/>
<path d="M257.54 281.762L259.702 279.905L257.501 279.707L256.307 280.83L257.54 281.762Z" fill="#D52317"/>
<path d="M198.616 236.807L198.935 233.497L196.536 234.037L196.457 235.996L198.616 236.807Z" fill="#D52317"/>
<path d="M224.314 228.257L226.245 225.549L223.897 224.817L222.85 226.474L224.314 228.257Z" fill="#D52317"/>
<path d="M259.281 275.883L261.443 274.025L259.241 273.828L258.048 274.95L259.281 275.883Z" fill="#D52317"/>
<path d="M283.941 298.226L287.213 297.63L286.04 295.469L284.133 295.927L283.941 298.226Z" fill="#D52317"/>
<path d="M133.878 302.092L134.196 298.781L131.797 299.321L131.718 301.28L133.878 302.092Z" fill="#D52317"/>
<path d="M219.257 280.849L219.987 277.81L217.99 277.637L217.645 279.467L219.257 280.849Z" fill="#D52317"/>
<path d="M246.453 118.462C246.453 118.462 241.566 112.427 238.447 107.183C238.447 107.183 236.372 100.095 233.065 97.2967C229.061 93.9075 225.333 93.8108 220.19 94.221C215.329 94.6086 203.685 98.0963 208.511 98.8164C209.357 98.9427 209.843 98.9037 210.697 98.9476C212.745 99.0528 215.945 99.1087 215.945 99.1087L219.129 99.6616L222.312 101.32L226.238 103.225C226.238 103.225 230.566 104.063 230.967 107.183C231.368 110.304 231.607 115.02 233.065 116.824C235.85 120.271 238.272 121.011 240.507 123.566C242.427 125.76 244.979 127.526 248.256 127.891C255.349 128.682 259.451 144.549 262.9 138.295C264.623 135.17 264.917 131.994 262.9 129.065C261.019 126.333 258.071 127.462 255.207 125.926C251.732 124.063 246.453 118.462 246.453 118.462Z" fill="#FF6B2C"/>
<path d="M141.898 137.614C138.89 141.328 133.665 146.626 130.142 143.828C128.678 142.664 127.767 142.547 127.442 144.397L125.185 157.234C124.741 159.76 127.205 161.072 128.711 158.99C131.942 154.527 134.889 149.083 137.674 147.105C155.489 134.457 163.878 136.704 168.716 136.504C172.425 136.35 174.941 136.58 176.31 136.776C177.137 136.895 177.954 137.08 178.774 137.24C181.591 137.789 184.342 138.626 186.984 139.738L194.424 142.868L196.226 143.826C197.951 144.742 199.426 146.064 200.525 147.678C201.721 149.433 202.432 151.474 202.589 153.598L202.92 158.087C203.053 159.884 203.638 161.616 204.619 163.121C205.112 163.876 205.698 164.565 206.365 165.171L211.06 169.442C213.066 171.267 215.682 172.277 218.402 172.277C219.855 172.277 221.293 172.566 222.631 173.128L228.604 175.634C229.975 176.325 231.282 177.138 232.507 178.063L234.269 179.393L236.258 181.202C236.948 181.83 237.471 182.619 237.78 183.5C237.944 183.969 238.046 184.458 238.082 184.954L239.153 199.463C239.212 200.255 239.141 201.053 238.944 201.824L238.141 204.96L233.801 219.15L231.218 225.139C230.851 225.991 230.385 226.797 229.831 227.542C229.019 228.633 228.043 229.613 226.824 230.214C226.322 230.462 225.782 230.688 225.305 230.802C224.74 230.937 224.409 230.939 223.834 231.015C222.576 231.182 221.796 230.907 220.604 231.356C213.582 234.003 239.052 233.424 238.937 231.108V230.882C238.937 230.692 238.952 230.502 238.981 230.314L239.026 230.028C239.168 229.112 239.139 228.179 238.938 227.277L238.867 226.956C238.398 224.851 238.69 222.643 239.689 220.724L249.104 202.642C250.523 199.929 251.156 196.877 250.932 193.832L250.14 183.106C249.912 180.018 248.125 177.27 245.402 175.818C244.116 175.132 243.016 174.144 242.197 172.939L240.669 170.689C238.422 167.382 235.237 164.825 231.521 163.346L231.262 163.243C229.786 162.656 228.248 162.238 226.677 161.998L224.39 161.648C222.36 161.337 220.441 160.528 218.805 159.294L217.576 158.366C216.477 157.536 215.64 156.405 215.167 155.109C214.94 154.487 214.801 153.835 214.752 153.174L214.444 149C214.404 148.46 214.317 147.925 214.183 147.4C213.547 144.895 211.892 142.776 209.619 141.555L205.703 139.451C203.992 138.533 202.431 137.362 201.071 135.977L199.19 134.063C195.936 130.752 192.013 128.175 187.68 126.501C183.922 125.05 179.893 124.292 175.987 125.338C173.7 125.95 171.158 126.7 168.092 127.187C166.593 127.425 165.066 127.402 163.559 127.241C157.968 126.646 152.349 128.23 147.869 131.666L147.41 132.018C145.326 133.616 143.551 135.572 141.898 137.614Z" fill="#FF6B2C"/>
<path d="M134.522 114.985L129.322 116.682C128.929 116.811 128.589 117.066 128.355 117.408C127.091 119.258 132.179 125.342 134.325 124.712C135.807 124.276 137.342 123.855 138.913 123.45C156.665 118.875 179.103 116.286 183.194 116.105C187.064 115.935 189.686 116.146 191.109 116.329C191.965 116.439 192.812 116.613 193.662 116.764C196.597 117.283 199.473 118.087 202.25 119.164L209.94 122.149L211.98 123.153C213.662 123.98 215.116 125.203 216.218 126.719C217.486 128.462 218.242 130.528 218.401 132.684L218.706 136.815C218.839 138.613 219.45 140.338 220.477 141.813C220.972 142.524 221.557 143.168 222.218 143.727L226.54 147.39C229.06 149.527 232.011 151.098 235.193 151.999L243.539 153.487C244.751 153.703 245.996 153.678 247.201 153.414L247.418 153.367C247.92 153.256 248.432 153.2 248.945 153.197C250.805 153.187 252.594 153.887 253.948 155.155L254.721 155.879C254.955 156.098 255.211 156.291 255.485 156.457C256.494 157.066 257.23 158.041 257.539 159.182L261.289 172.998L261.452 174.014C261.729 175.742 261.751 177.503 261.516 179.241C261.336 180.577 261.307 181.928 261.43 183.269L262.45 194.405L262.418 200.338C262.417 200.593 262.364 200.846 262.264 201.081L261.235 203.494C261.183 203.615 261.272 203.749 261.403 203.748C261.546 203.748 261.634 203.902 261.561 204.025L261.202 204.629C261.148 204.719 261.12 204.821 261.119 204.925L261.119 205.038C261.116 205.589 261.561 206.035 262.112 206.032L267.207 206.005C267.561 206.003 267.914 205.97 268.262 205.907L268.964 205.779L269.338 205.702C269.761 205.615 270.164 205.445 270.521 205.2C270.989 204.88 271.366 204.443 271.615 203.934L271.679 203.802C272.032 203.077 272.146 202.26 272.004 201.469L268.959 184.454C268.574 182.303 268.482 180.109 268.685 177.93C268.811 176.585 268.824 175.234 268.725 173.888L267.637 159.154C267.491 157.181 266.829 155.284 265.716 153.654C265.085 152.73 264.319 151.906 263.443 151.21L258.648 147.398C255.837 145.164 252.685 143.395 249.311 142.157L248.253 141.769C246.689 141.195 245.066 140.791 243.414 140.564L240.857 140.212C238.873 139.94 236.986 139.199 235.35 138.051L233.897 137.031C232.809 136.268 231.973 135.199 231.494 133.958C231.255 133.339 231.108 132.687 231.059 132.024L230.803 128.551C230.737 127.659 230.588 126.776 230.357 125.913C229.78 123.754 228.704 121.764 227.216 120.102L225.617 118.316C223.489 115.94 220.913 114.008 218.036 112.631L210.516 109.032C210.062 108.814 209.607 108.602 209.143 108.406C207.259 107.61 201.836 105.444 196.754 104.611C190.474 103.583 187.096 105.954 179.381 106.127C174.974 106.126 170.605 106.999 166.526 108.694L163.975 109.755C159.454 111.633 154.673 112.8 149.804 113.213L138.553 114.168C137.184 114.284 135.831 114.558 134.522 114.985Z" fill="#FF6B2C"/>
<path d="M129.309 191.542L128.081 194.135C127.223 195.946 127.013 197.993 127.485 199.929L133.551 224.79C133.73 225.525 134.751 225.577 135.017 224.865C135.085 224.683 135.082 224.482 135.009 224.303L134.172 222.258C133.945 221.705 133.797 221.121 133.732 220.525L133.577 219.098L133.7 215.21L134.645 205.456L136.283 192.452L136.809 189.564C137.646 184.971 139.247 180.545 141.546 176.472L141.803 176.016L143.221 173.303C144.584 170.696 146.5 168.417 148.833 166.627C150.786 165.129 152.995 164.001 155.348 163.301L158.205 162.451C159.485 162.07 160.794 161.8 162.118 161.644L165.626 161.229C167.856 160.966 170.108 161.363 172.103 162.372L173.119 162.886C174.991 163.832 176.44 165.446 177.184 167.412L177.46 168.141C177.64 168.617 177.733 169.123 177.733 169.634C177.733 169.931 177.701 170.227 177.64 170.517L176.498 175.893L175.795 178.524C175.518 179.563 175.435 180.643 175.551 181.71C175.636 182.494 175.828 183.263 176.122 183.994L176.224 184.248C176.707 185.449 177.474 186.513 178.461 187.348L178.584 187.452C179.338 188.09 180.215 188.564 181.163 188.846C182.408 189.217 183.734 189.244 184.999 188.922L187.848 188.199L193.331 186.934C194.91 186.57 196.563 186.845 197.93 187.7C199.13 188.451 200.029 189.6 200.472 190.95L200.795 191.935L201.955 194.36C202.593 195.696 203.002 197.132 203.162 198.608C203.375 200.567 203.147 202.553 202.495 204.42L202.192 205.288C201.262 207.949 199.685 210.34 197.604 212.244C196.609 213.154 195.51 213.942 194.331 214.592L187.631 218.284C186.422 218.951 185.355 219.852 184.495 220.934C182.748 223.134 180.191 224.536 177.41 224.82L174.841 225.082C173.546 225.214 172.27 225.501 171.04 225.935L159.475 230.015C159.124 230.139 158.763 230.236 158.398 230.305L150.168 231.861C147.833 232.302 146.934 235.189 148.614 236.853C149.091 237.325 149.716 237.617 150.386 237.68L156.83 238.289C160.801 238.664 164.808 237.907 168.389 236.106L186.629 226.932L193.114 223.448C194.862 222.509 196.846 222.12 198.808 222.331C202.141 222.69 205.441 221.31 207.55 218.675L209.745 215.933C213.331 211.451 214.303 205.424 212.298 200.086L211.656 198.378C210.939 196.467 210.654 194.415 210.824 192.373C211.223 187.585 209.119 182.955 205.266 180.137L203.338 178.727L199.161 176.423C198.523 176.071 197.847 175.792 197.146 175.59L194.886 174.942C194.047 174.702 193.147 174.777 192.354 175.154C189.819 176.36 186.967 174.339 187.27 171.55L187.323 171.054C187.354 170.775 187.354 170.494 187.323 170.215L186.59 163.471C186.315 160.938 185.36 158.534 183.827 156.512L183.63 156.251C182.627 154.928 181.408 153.786 180.022 152.872C177.127 150.961 173.643 150.139 170.182 150.547L166.805 150.946L162.357 151.33C158.593 151.655 154.93 152.766 151.606 154.591L150.16 155.385C147.862 156.647 145.842 158.364 144.225 160.432L143.189 161.757C141.987 163.294 140.439 164.524 138.674 165.346C135.448 166.85 133.021 169.679 132.027 173.099L131.822 173.803C131.523 174.831 131.343 175.889 131.287 176.955L131.062 181.214L130.918 184.978C130.831 187.249 130.284 189.482 129.309 191.542Z" fill="#FF6B2C"/>
<path d="M197.582 95.1537C195.258 95.7517 191.601 97.1082 192.861 99.2304C193.416 100.165 194.111 100.5 195.14 100.738C196.531 101.06 197.249 99.912 198.666 99.7662C200.316 99.5964 201.734 101.39 202.896 100.157C204.117 98.8609 203.408 96.8168 202.137 95.5741C200.835 94.3006 199.316 94.7077 197.582 95.1537Z" fill="#FF6B2C"/>
<path d="M271.324 142.903C272.486 144.662 273.154 147.542 271.266 148.37C270.525 148.695 269.93 148.802 269.208 148.434C268.277 147.958 268.677 146.79 268.008 145.963C267.276 145.058 265.988 145.335 265.635 144.21C265.102 142.515 267.059 140.91 268.768 141.015C269.989 141.09 270.63 141.853 271.324 142.903Z" fill="#FF6B2C"/>
<path d="M210.466 139.097L207.649 140.78L209.242 142.874L210.856 141.767L210.466 139.097Z" fill="#D52317"/>
<path d="M226.592 175.076L224.823 178.299L227.037 179.114L227.994 177.144L226.592 175.076Z" fill="#D52317"/>
<path d="M145.858 217.35L142.829 219.827L145.267 221.384L146.969 219.827L145.858 217.35Z" fill="#D52317"/>
<path d="M122.62 153.988L119.591 156.465L122.029 158.022L123.731 156.465L122.62 153.988Z" fill="#D52317"/>
<path d="M145.699 174.822L142.67 176.261L145.108 177.166L146.81 176.261L145.699 174.822Z" fill="#D52317"/>
<path d="M204.093 213.741L202.708 217.4L205.598 217.529L206.293 215.33L204.093 213.741Z" fill="#D52317"/>
<path d="M126.76 183.551L123.731 186.028L126.169 187.585L127.871 186.028L126.76 183.551Z" fill="#D52317"/>
<path d="M147.231 120.087L143.333 119.785L143.996 122.321L146.301 122.384L147.231 120.087Z" fill="#D52317"/>
<path d="M209.324 119.641L206.295 121.871L208.733 123.273L210.434 121.871L209.324 119.641Z" fill="#D52317"/>
<path d="M164.202 171.305L161.173 172.744L163.611 173.649L165.313 172.744L164.202 171.305Z" fill="#D52317"/>
<path d="M217.183 240.554L215.798 244.213L218.688 244.342L219.383 242.143L217.183 240.554Z" fill="#D52317"/>
<path d="M185.369 242.311L182.34 244.788L184.778 246.345L186.48 244.788L185.369 242.311Z" fill="#D52317"/>
<path d="M172.889 209.031L169.86 211.507L172.298 213.064L174 211.507L172.889 209.031Z" fill="#D52317"/>
<path d="M160.409 177.439L157.38 178.878L159.818 179.783L161.519 178.878L160.409 177.439Z" fill="#D52317"/>
<path d="M139.327 144.452L135.428 144.117L136.091 146.933L138.397 147.003L139.327 144.452Z" fill="#D52317"/>
<path d="M250.332 129.667L247.303 132.144L249.741 133.701L251.443 132.144L250.332 129.667Z" fill="#D52317"/>
<path d="M178.969 116.009L175.94 118.239L178.378 119.641L180.08 118.239L178.969 116.009Z" fill="#D52317"/>
<path d="M207.375 184.179L205.606 187.402L207.82 188.217L208.777 186.247L207.375 184.179Z" fill="#D52317"/>
<path d="M236.322 230.684L233.42 228.475L232.152 229.955L233.951 231.21L236.322 230.684Z" fill="#D52317"/>
<path d="M209.833 157.639L207.939 154.663L205.876 156.117L207.107 157.833L209.833 157.639Z" fill="#D52317"/>
<path d="M278.53 156.645L276.637 153.668L274.573 155.123L275.804 156.839L278.53 156.645Z" fill="#D52317"/>
<path d="M252.838 168.798L251.993 166.096L250.588 167.723L251.16 169.267L252.838 168.798Z" fill="#D52317"/>
<path d="M201.774 203.199L198.355 201.168L197.643 203.347L199.726 204.463L201.774 203.199Z" fill="#D52317"/>
<path d="M247.825 151.976L245.931 148.999L243.868 150.453L245.099 152.17L247.825 151.976Z" fill="#D52317"/>
<path d="M252.674 183.9L251.829 181.199L250.424 182.826L250.997 184.37L252.674 183.9Z" fill="#D52317"/>
<path d="M172.05 206.113L168.631 204.081L167.919 206.261L170.002 207.376L172.05 206.113Z" fill="#D52317"/>
<path d="M176.668 181.282L174.774 178.306L172.711 179.76L173.942 181.476L176.668 181.282Z" fill="#D52317"/>
<path d="M212.806 180.549L210.912 177.573L208.849 179.027L210.08 180.743L212.806 180.549Z" fill="#D52317"/>
<path d="M247.238 179.367L246.392 176.666L244.988 178.293L245.56 179.837L247.238 179.367Z" fill="#D52317"/>
<path d="M277.433 260.908L275.539 257.931L273.476 259.385L274.707 261.102L277.433 260.908Z" fill="#D52317"/>
<path d="M207.87 292.199L204.45 290.168L203.739 292.347L205.821 293.462L207.87 292.199Z" fill="#D52317"/>
<path d="M230.986 213.551L228.084 211.341L226.816 212.821L228.615 214.076L230.986 213.551Z" fill="#D52317"/>
<path d="M134.328 171.53L136.768 173.547L137.788 171.375L136.278 170.267L134.328 171.53Z" fill="#D52317"/>
<path d="M156.312 144.521L159.552 145.053L159.319 142.743L157.388 142.532L156.312 144.521Z" fill="#D52317"/>
<path d="M221.532 204.351L224.681 206.294L224.945 203.526L223.046 202.491L221.532 204.351Z" fill="#D52317"/>
<path d="M180.775 247.178L183.924 249.121L184.188 246.353L182.288 245.318L180.775 247.178Z" fill="#D52317"/>
<path d="M140.017 290.008L143.166 291.951L143.43 289.183L141.53 288.148L140.017 290.008Z" fill="#D52317"/>
<path d="M170 266.177L173.149 268.119L173.413 265.352L171.513 264.316L170 266.177Z" fill="#D52317"/>
<path d="M188.077 218.916L190.408 221.211L190.157 218.664L188.772 217.408L188.077 218.916Z" fill="#D52317"/>
<path d="M195.677 152.08L199.108 152.112L198.068 149.413L196.06 149.52L195.677 152.08Z" fill="#D52317"/>
<path d="M202.44 233.354L205.589 235.296L205.853 232.529L203.953 231.493L202.44 233.354Z" fill="#D52317"/>
<path d="M144.332 236.063L145.634 239.747L147.371 238.278L146.51 236.139L144.332 236.063Z" fill="#D52317"/>
<path d="M119.445 179.176L122.4 181.202L122.541 178.487L120.764 177.399L119.445 179.176Z" fill="#D52317"/>
<path d="M177.993 203.112L180.324 205.406L180.074 202.86L178.688 201.603L177.993 203.112Z" fill="#D52317"/>
<path d="M211.637 130.963L215.068 130.995L214.028 128.296L212.02 128.403L211.637 130.963Z" fill="#D52317"/>
<path d="M225.593 159.593L228.742 161.536L229.006 158.768L227.106 157.733L225.593 159.593Z" fill="#D52317"/>
<path d="M204.294 182.342L207.443 184.285L207.707 181.517L205.807 180.482L204.294 182.342Z" fill="#D52317"/>
<path d="M184.326 204.516L186.658 206.811L186.407 204.265L185.022 203.008L184.326 204.516Z" fill="#D52317"/>
<path d="M166.658 235.066L167.934 238.761L169.891 237.197L169.035 235.056L166.658 235.066Z" fill="#D52317"/>
<path d="M128.576 208.293L131.531 210.32L131.673 207.605L129.895 206.517L128.576 208.293Z" fill="#D52317"/>
<path d="M171.08 159.088L174.32 159.62L174.087 157.31L172.156 157.099L171.08 159.088Z" fill="#D52317"/>
<path d="M211.76 178.133L210.955 175.353L208.812 176.243L209.395 177.868L211.76 178.133Z" fill="#D52317"/>
<path d="M177.453 183.836L175.099 181.605L173.908 183.312L175.375 184.569L177.453 183.836Z" fill="#D52317"/>
<path d="M159.463 105.488L158.028 102.349L156.154 104.081L157.101 105.882L159.463 105.488Z" fill="#D52317"/>
<path d="M218.727 99.8504L217.292 96.7115L215.418 98.443L216.365 100.244L218.727 99.8504Z" fill="#D52317"/>
<path d="M195.783 114.876L195.233 111.97L193.916 113.847L194.306 115.502L195.783 114.876Z" fill="#D52317"/>
<path d="M149.502 155.982L146.69 153.981L145.933 156.417L147.653 157.503L149.502 155.982Z" fill="#D52317"/>
<path d="M192.576 96.7619L191.142 93.623L189.267 95.3545L190.215 97.1551L192.576 96.7619Z" fill="#D52317"/>
<path d="M242.139 128.438L243.27 125.18L240.958 125.178L240.388 127.131L242.139 128.438Z" fill="#D52317"/>
<path d="M228.615 181.515L227.391 178.431L225.649 180.197L226.464 181.963L228.615 181.515Z" fill="#D52317"/>
<path d="M194.642 131.45L194.092 128.543L192.774 130.421L193.165 132.075L194.642 131.45Z" fill="#D52317"/>
<path d="M123.695 161.146L120.883 159.145L120.126 161.582L121.847 162.668L123.695 161.146Z" fill="#D52317"/>
<path d="M129.319 133.609L127.884 130.471L126.01 132.202L126.957 134.003L129.319 133.609Z" fill="#D52317"/>
<path d="M160.508 130.413L159.074 127.274L157.199 129.006L158.147 130.807L160.508 130.413Z" fill="#D52317"/>
<path d="M190.257 126.84L189.707 123.933L188.39 125.811L188.78 127.465L190.257 126.84Z" fill="#D52317"/>
<path d="M223.122 116.239L224.281 112.988L221.73 112.923L221.154 114.874L223.122 116.239Z" fill="#D52317"/>
<path d="M210.878 214.258L209.443 211.119L207.569 212.851L208.516 214.651L210.878 214.258Z" fill="#D52317"/>
<path d="M238.512 156.429L237.287 153.346L235.545 155.112L236.36 156.878L238.512 156.429Z" fill="#D52317"/>
<path d="M148.862 253.178L146.05 251.177L145.293 253.613L147.013 254.699L148.862 253.178Z" fill="#D52317"/>
<path d="M173.99 165.401L171.635 163.17L170.444 164.877L171.911 166.134L173.99 165.401Z" fill="#D52317"/>
</svg>
